<svg width="380" height="450" xmlns="http://www.w3.org/2000/svg" xml:space="preserve" enable-background="new 0 0 380 450" version="1.1">

 <g>
  <title>Layer 1</title>
  <path id="svg_2" d="m1,235.39999c3.65335,-1.54921 7.25154,-2.94392 10.97512,-3.78061c3.94858,-0.88725 8.01626,-1.24441 12.08696,-1.84115c-5.37447,-7.92818 -6.70699,-17.51552 -3.70318,-27.7251c14.75217,4.77764 20.85819,10.67583 22.98558,25.15585c7.98333,-2.42201 15.88617,-4.81961 24.17304,-6.91255c-1.51679,3.21346 -3.49813,6.07318 -5.30501,9.03919c-9.68727,15.90178 -12.20349,31.74348 0.36282,47.66557c3.18196,4.03168 7.35215,7.33234 10.22008,11.54617c1.99628,2.93308 3.90464,7.04984 3.43403,10.28617c-0.79233,5.44873 -3.07451,10.82763 -5.51666,15.8537c-3.31015,6.8124 -1.73668,14.03161 4.4268,18.45333c5.26427,3.77665 10.75036,2.60694 16.18905,1.19275c16.86713,-4.38583 33.88759,-8.33523 50.45315,-13.67956c13.40935,-4.32611 26.73441,-9.49173 39.19751,-16.00568c11.83527,-6.18582 22.91494,-14.06622 33.56234,-22.20202c9.57411,-7.31568 17.25464,-16.7107 21.47532,-28.28034c2.41257,-6.6133 4.06876,-13.50253 6.42617,-20.18887c6.92591,4.15536 13.8601,3.67007 20.86468,1.2901c1.58322,15.37225 15.24881,24.12405 30.07581,17.10086c0.37472,0.88885 0.8663,1.73662 1.09689,2.65024c2.94205,11.65737 16.0531,17.72406 27.30911,12.79147c1.43411,-0.62848 3.80597,0.56225 5.63373,1.21652c4.38574,1.56989 8.66278,4.50852 13.06516,4.66965c4.47656,0.16391 9.05065,-2.33676 13.54431,-3.2254c-0.97754,13.90139 -3.87751,26.9736 -8.62534,39.54696c-5.26562,13.9448 -12.07858,27.07822 -22.04526,38.41239c-1.91668,2.17968 -2.84305,5.23016 -4.14535,7.72399c-1.73972,1.12836 -3.85459,2.0062 -5.27765,3.5301c-2.6243,2.81024 -4.40131,6.55148 -7.33621,8.89819c-4.10978,3.28607 -9.02112,5.55124 -13.46216,8.44842c-2.56604,1.67392 -5.87323,3.25177 -3.23041,7.42142c0.30594,0.48267 -0.38519,1.69657 -0.76849,2.49753c-1.00186,2.09354 -1.81198,4.35687 -3.19431,6.17575c-4.25265,5.59579 -8.56366,11.17239 -13.2717,16.37668c-0.99456,1.09933 -3.77301,0.58481 -6.11593,0.78381c-6.12732,0.59162 -11.86826,1.21332 -17.99085,1.77585c-4.55794,-2.01257 -9.11308,-3.43072 -12.81645,-6.05212c-4.84819,-3.43189 -9.62819,-5.92584 -15.71767,-4.98621c-2.56741,0.39615 -5.19175,1.10162 -7.72874,0.8985c-10.62701,-0.85077 -21.23073,-1.99262 -31.87262,-3.0307c-4.6619,8.27594 -12.96442,11.84061 -22.48442,13.7124c-5.53471,-1.03076 -10.77312,-1.76526 -16.39346,-2.547c-2.93865,-1.43914 -5.76302,-2.5 -7.98981,-4.30005c-3.39963,-2.74829 -7.26726,-5.51794 -9.30447,-9.18502c-2.10318,-3.78583 -2.23824,-8.6594 -3.27719,-13.04694c-0.20131,-0.85016 -0.35791,-2.07251 -0.94597,-2.41241c-4.84602,-2.801 -9.73247,-5.54465 -14.71466,-8.0947c-9.53909,-4.88245 -19.39138,-9.13882 -27.87992,-15.93744c-3.58297,-2.86969 -7.86449,-4.86719 -12.15535,-7.45853c-0.45674,-0.86325 -1.08684,-3.53958 -2.08564,-3.68508c-4.35311,-0.63416 -5.19155,-4.70481 -7.68552,-7.04764c-8.99499,-8.44992 -15.35783,-18.8259 -20.89699,-29.74323c-0.85304,-1.6813 -1.38397,-4.65109 -2.48605,-4.86667c-3.10686,-0.60769 -2.06979,-2.27874 -1.84577,-3.97302c0.13932,-1.05368 0.52014,-2.21194 0.24355,-3.16369c-4.4004,-15.14142 -5.88676,-30.40232 -1.69293,-46.23635c-8.18509,0.53607 -15.34968,-1.19054 -21.52664,-5.95718c-2.2778,-1.75772 -4.21816,-3.95273 -6.31243,-5.94829c0,-1.06667 0,-2.13335 0,-3.60001z" fill="#FFF8AC"/>
  <path id="svg_6" d="m259.95956,41.05016c-3.40512,-3.15831 -6.94709,-5.94324 -8.17135,-11.02497c-1.87989,-7.80304 1.98948,-11.52252 9.38003,-15.86741c10.60092,-6.23225 21.77976,-11.27528 34.51801,-11.27414c0.50571,0.00005 1.01144,-0.6777 1.41547,-1.46164c4.58752,-0.422 9.27679,-0.422 14.32446,-0.00751c0.86181,0.78064 1.35217,1.4461 1.87045,1.4686c9.65659,0.41937 18.30093,3.8766 26.6225,8.50931c2.61304,1.45469 5.53549,2.35354 8.64313,3.64232c0.43267,1.19546 0.60061,3.447 1.80969,4.66536c3.65674,3.68492 4.61316,8.23902 3.43551,12.70394c-1.15109,4.36444 -3.77957,8.34754 -5.87701,12.43778c-0.16226,0.31651 -1.25299,0.15695 -2.22757,0.08815c-1.48096,-1.30204 -2.76523,-2.37822 -3.79449,-3.65928c-17.93897,-22.32743 -50.70182,-25.84708 -72.95566,-7.78697c-3.04144,2.46828 -5.99756,5.04171 -8.99317,7.56646z" fill="#AF4D4A"/>
  <path id="svg_8" d="m352.01013,58.846c10.61151,1.15816 20.26139,4.63646 28.69315,11.46181c0.29672,2.06275 0.29672,4.4333 0.29672,7.24802c-3.50461,2.44419 -6.85034,4.8345 -10.55514,6.34276c-4.36268,1.77604 -9.03647,2.78769 -14.39698,4.24066c-6.28448,1.08665 -11.83642,2.49961 -16.0571,-3.37825c-0.58621,-1.9596 -1.17959,-3.50361 -1.59243,-5.09447c-3.20548,-12.35288 2.13363,-20.49926 13.61178,-20.82053z" fill="#FEBD43"/>
  <path id="svg_9" d="m252.46866,451c-5.47649,-7.66751 -2.94463,-16.26627 -3.42162,-24.47852c-0.26022,-4.48053 -0.05095,-8.98831 -0.07481,-13.94238c5.71951,-1.08026 11.46045,-1.70196 17.58777,-2.29358c0.38641,8.76383 0.38641,17.49753 0.38641,26.71479c3.84451,0 7.33127,-0.3891 10.68051,0.12222c2.71613,0.41464 6.9795,1.36554 7.51548,3.04761c0.95468,2.99618 -0.38923,6.72473 -0.4571,10.48843c-10.37286,0.34143 -21.06042,0.34143 -32.21664,0.34143z" fill="#FFBD44"/>
  <path id="svg_10" d="m157.94925,412.60324c0.29633,8.18012 0.29633,16.06393 0.29633,24.39676c3.75285,0 7.4022,-0.38913 10.9221,0.11883c3.00404,0.43354 7.06305,1.05951 8.48988,3.1084c1.99147,2.85972 1.57672,7.06354 -0.97149,10.46814c-10.70696,0.30463 -21.72786,0.30463 -33.21741,0.30463c-0.80458,-13.32565 -1.1405,-26.65131 -1.50369,-40.43677c5.21116,0.27475 10.44957,1.00925 15.98428,2.04001z" fill="#FFBD44"/>
  <path id="svg_11" d="m351.99548,58.46915c-11.4635,0.69812 -16.80261,8.8445 -13.59713,21.19738c0.41284,1.59086 1.00622,3.13487 1.3973,5.35512c-4.18185,6.43983 -8.54507,12.04289 -12.20745,18.0717c-2.63248,4.33333 -1.21018,8.72129 2.30386,12.16328c3.42303,3.35282 8.25858,3.54649 12.84024,0.84435c1.08993,-0.6428 2.13568,-1.36051 2.87274,-1.83293c3.10752,1.75794 5.79959,3.28089 8.4917,4.80382c-0.03232,39.22273 -0.07312,78.44548 -0.05746,117.6682c0.00048,1.22017 0.25628,2.68153 0.94769,3.62329c8.17178,11.1309 8.1257,17.55446 -0.58664,29.54069c-4.86118,1.45487 -9.43527,3.95554 -13.91183,3.79163c-4.40238,-0.16113 -8.67942,-3.09976 -13.06516,-4.66965c-1.82776,-0.65427 -4.19962,-1.845 -5.63373,-1.21652c-11.25601,4.93259 -24.36706,-1.1341 -27.30911,-12.79147c-0.23059,-0.91362 -0.72217,-1.76139 -1.09689,-2.65024c-14.827,7.02319 -28.49259,-1.72861 -30.07581,-17.10086c-7.00458,2.37997 -13.93877,2.86526 -20.89418,-1.7403c0.02268,-19.45637 -6.17178,-36.41112 -15.86243,-52.31923c-3.51712,-5.77368 -7.05154,-11.53683 -10.57808,-17.30479c0.67576,-2.64708 2.34461,-5.51035 1.82503,-7.89722c-1.16018,-5.32976 4.35922,-6.79197 5.20873,-10.81329c1.96101,-9.28273 7.49638,-17.62848 7.13829,-27.58379c-0.04653,-1.29338 2.18962,-2.52405 2.77214,-4.01651c1.04843,-2.68616 2.18623,-5.52157 2.32733,-8.34262c0.39697,-7.93647 6.23978,-13.7294 7.80473,-21.19254c1.38484,-6.60407 2.79387,-13.278 5.08852,-19.59554c2.35522,-6.48436 5.74641,-12.59897 8.80176,-18.81765c0.70285,-1.43057 1.88534,-2.62549 2.93353,-4.26108c3.082,-2.85697 6.03812,-5.4304 9.07956,-7.89868c22.25384,-18.06011 55.01669,-14.54046 72.95566,7.78697c1.02926,1.28106 2.31353,2.35724 3.79449,3.65928c4.54877,3.4469 3.95822,8.9704 6.2926,13.5392m-68.35754,0.11609c-3.80841,-1.6813 -6.7616,-0.70067 -7.39145,3.4646c-0.23794,1.57334 1.31522,4.29671 2.77271,4.99813c1.43579,0.69098 4.33334,0.10676 5.61126,-1.02376c2.27072,-2.00888 1.9169,-4.72596 -0.99252,-7.43897z" fill="#DEBE91"/>
  <path id="svg_12" d="m215.56036,163.93753c3.93929,5.73305 7.47371,11.4962 10.99083,17.26988c9.69065,15.90811 15.88511,32.86286 15.50179,52.24057c-1.96727,7.2152 -3.62346,14.10443 -6.03603,20.71773c-4.22068,11.56964 -11.90121,20.96466 -21.47532,28.28034c-10.6474,8.1358 -21.72707,16.0162 -33.56234,22.20202c-12.4631,6.51395 -25.78816,11.67957 -39.19751,16.00568c-16.56556,5.34433 -33.58602,9.29373 -50.45315,13.67956c-5.43869,1.41419 -10.92478,2.5839 -16.18905,-1.19275c-6.16348,-4.42172 -7.73695,-11.64093 -4.4268,-18.45333c2.44215,-5.02607 4.72433,-10.40497 5.51666,-15.8537c0.47061,-3.23633 -1.43775,-7.35309 -3.43403,-10.28617c-2.86793,-4.21383 -7.03812,-7.51449 -10.22008,-11.54617c-12.56631,-15.92209 -10.05009,-31.76379 -0.36282,-47.66557c1.80688,-2.96601 3.78822,-5.82573 5.71835,-9.09026c1.31555,-2.73213 2.6018,-5.10852 3.6396,-7.02588c3.64508,-2.36665 7.24142,-4.43922 10.54598,-6.90315c6.40078,-4.77249 12.48757,-9.97681 18.99947,-14.58536c3.75859,-2.66 8.16089,-4.3925 12.14198,-6.76324c2.1299,-1.26837 3.98101,-3.0049 5.60151,-5.18621c8.39348,0.21749 15.30598,-4.8905 22.98125,-7.65907c7.6673,-2.76565 15.61524,-4.74904 23.41408,-7.15965c1.00337,-0.31015 1.85927,-1.11282 2.7666,-1.71286c0.58977,-0.39005 1.12914,-1.15587 1.72479,-1.19162c6.9105,-0.41477 13.82749,-0.98703 20.74262,-0.98494c7.08502,0.00214 14.17563,0.51239 21.24913,1.00923c1.17503,0.08255 2.27507,1.23293 3.82249,1.85492m-101.48284,108.01892c-6.55256,0.08826 -10.39135,-1.81064 -11.61606,-6.35739c-1.12402,-4.17294 -0.9128,-8.21353 2.96271,-11.3082c1.25263,-1.0002 2.00539,-2.62637 2.9868,-3.96623c-1.64948,-0.14358 -3.33385,-0.57425 -4.94209,-0.37871c-5.5497,0.67481 -9.72733,-1.19853 -11.71459,-5.5222c-2.15327,-4.68486 -0.77069,-9.55768 3.89373,-13.1532c0.8847,-0.68199 2.14308,-0.87924 3.22904,-1.30015c-0.44152,-0.73264 -0.88304,-1.46529 -1.32456,-2.19794c-1.55497,0 -3.41495,-0.55987 -4.61405,0.09335c-6.45652,3.51737 -9.13103,13.46299 -4.73964,19.55223c2.45362,3.40227 6.4485,5.69303 9.94561,8.65105c-3.10033,9.8851 -0.75427,14.67945 11.22356,21.65405c-0.21909,1.20264 -0.40864,2.49769 -0.6943,3.77118c-2.40748,10.73267 7.92496,20.25272 18.45735,16.836c1.40666,-0.45636 2.41548,-2.13901 3.60855,-3.25375c-1.49144,-0.44547 -2.9572,-1.03571 -4.47975,-1.30579c-3.02075,-0.53586 -6.54477,-0.07281 -9.01752,-1.49194c-5.85165,-3.35837 -5.5837,-10.2302 -0.07952,-16.03311c1.0159,-1.07105 1.49532,-2.65091 2.22237,-3.99594c-1.50131,-0.13566 -3.00263,-0.27128 -5.30764,-0.29331m34.9179,-62.45004c-0.09106,6.18704 3.04154,10.40268 8.31413,13.12393c2.41007,1.24385 3.81226,2.11118 3.01233,5.5744c-1.69009,7.31719 1.35628,12.99491 8.13726,16.47522c2.57344,1.32083 3.43762,2.42504 2.83336,5.67111c-2.0571,11.05063 6.98776,19.72715 17.93113,17.4625c1.37471,-0.28446 2.43259,-2.09998 3.63726,-3.20612c-1.3974,-0.44571 -2.86681,-1.42285 -4.17969,-1.24493c-5.62392,0.76214 -9.95534,-0.86173 -11.87741,-4.86176c-2.09142,-4.35245 -0.86888,-8.8889 3.11406,-12.94522c0.95195,-0.96948 1.1382,-2.69079 1.67662,-4.06631c-1.45511,-0.04471 -3.01125,-0.44829 -4.34783,-0.07199c-5.77577,1.62603 -11.70668,-2.38002 -12.29982,-8.286c-0.40197,-4.00233 0.85045,-7.03592 3.899,-9.6694c0.99982,-0.8637 1.12353,-2.74158 1.64788,-4.15567c-1.35257,-0.09218 -2.70597,-0.26804 -4.0575,-0.25484c-1.60447,0.01567 -3.26629,0.51708 -4.79918,0.23741c-3.66606,-0.66885 -6.68954,-2.55684 -7.4448,-6.45968c-0.85535,-4.41991 -0.28968,-8.54519 3.53395,-11.77233c0.96928,-0.81807 1.13229,-2.59143 1.66578,-3.92584c-1.47516,0.17058 -3.75146,-0.1951 -4.28676,0.60458c-2.31398,3.45697 -4.11857,7.2549 -6.10977,11.77094m-15.24887,14.71159c0.14905,-2.57707 -0.90704,-3.16084 -3.37076,-2.43715c-6.25695,1.83794 -10.73774,0.18769 -13.11899,-4.57168c-2.43759,-4.872 -1.27196,-8.81687 3.49035,-13.1651c0.94196,-0.86008 1.07734,-2.60353 1.58469,-3.93962c-1.47243,0.19479 -3.22917,-0.06002 -4.36894,0.66079c-5.44848,3.44564 -6.84706,8.76812 -5.91774,14.78507c0.79236,5.13017 3.42743,8.9801 8.67615,10.517c2.49537,0.73066 3.19426,1.85723 2.6392,4.72418c-1.80767,9.33714 1.04882,14.23059 9.82226,18.16009c0.57309,0.25669 1.08234,0.65599 1.5515,0.94585c-2.04219,12.05988 1.39268,19.36743 9.73477,21.00571c6.75413,1.32638 10.19077,0.01864 11.13031,-4.81424c-1.73343,0.17795 -3.34984,0.67184 -4.84622,0.42831c-2.98036,-0.48508 -6.45323,-0.6047 -8.7256,-2.25128c-5.53472,-4.01053 -5.05436,-9.43606 0.38519,-15.3235c1.07587,-1.16444 1.42824,-2.99733 2.11426,-4.52193c-1.46459,-0.0103 -3.02254,-0.3524 -4.37699,0.02872c-4.88176,1.37364 -10.26234,-1.17038 -12.16059,-6.05789c-2.40056,-6.18083 1.10202,-10.03281 5.75715,-14.17333z" fill="#FBDFA5"/>
  <path id="svg_13" d="m354.49188,119.04306c-3.08725,-1.49412 -5.77932,-3.01707 -8.88684,-4.77501c-0.73706,0.47242 -1.78281,1.19013 -2.87274,1.83293c-4.58166,2.70214 -9.41721,2.50847 -12.84024,-0.84435c-3.51404,-3.44199 -4.93634,-7.82995 -2.30386,-12.16328c3.66238,-6.02881 8.0256,-11.63187 12.28399,-17.67781c4.33927,5.22332 9.89121,3.81036 15.76587,2.82643c1.70767,1.18579 3.0036,2.37874 4.81772,4.04874c0.86075,2.06789 1.7128,5.25987 3.4191,7.89967c1.78921,2.768 3.48678,4.40333 1.56399,8.50573c-1.47735,3.15205 -1.65762,6.79771 -5.2316,8.54054c-1.66613,0.81248 -3.54034,1.19836 -5.71539,1.80641z" fill="#AF4E4B"/>
  <path id="svg_14" d="m283.95596,58.83302c2.5914,2.46523 2.94522,5.18231 0.6745,7.19119c-1.27792,1.13052 -4.17547,1.71474 -5.61126,1.02376c-1.45749,-0.70142 -3.01065,-3.42479 -2.77271,-4.99813c0.62985,-4.16527 3.58304,-5.1459 7.70947,-3.21682z" fill="#1D1818"/>
  <path id="svg_15" d="m114.47937,271.89966c1.90316,0.07882 3.40448,0.21444 4.90579,0.3501c-0.72705,1.34503 -1.20647,2.92489 -2.22237,3.99594c-5.50418,5.80291 -5.77213,12.67474 0.07952,16.03311c2.47275,1.41913 5.99677,0.95608 9.01752,1.49194c1.52255,0.27008 2.98831,0.86032 4.47973,1.30579c-1.19305,1.11474 -2.20187,2.79739 -3.60853,3.25375c-10.53239,3.41672 -20.86483,-6.10333 -18.45735,-16.836c0.28566,-1.27349 0.47521,-2.56854 0.6943,-3.77118c-11.97783,-6.9746 -14.32389,-11.76895 -11.22356,-21.65405c-3.49711,-2.95802 -7.49199,-5.24878 -9.94561,-8.65105c-4.39139,-6.08924 -1.71688,-16.03486 4.73964,-19.55223c1.1991,-0.65322 3.05908,-0.09335 4.61405,-0.09335c0.44152,0.73265 0.88304,1.4653 1.32456,2.19794c-1.08596,0.42091 -2.34434,0.61816 -3.22904,1.30015c-4.66442,3.59552 -6.047,8.46834 -3.89373,13.1532c1.98726,4.32367 6.16489,6.19701 11.71459,5.5222c1.60824,-0.19554 3.29261,0.23513 4.94209,0.37871c-0.98141,1.33986 -1.73417,2.96603 -2.9868,3.96623c-3.87551,3.09467 -4.08673,7.13526 -2.96271,11.3082c1.22471,4.54675 5.0635,6.44565 12.01791,6.3006z" fill="#DAC594"/>
  <path id="svg_16" d="m148.99606,209.08533c1.99056,-4.09496 3.79515,-7.89289 6.10913,-11.34986c0.5353,-0.79968 2.8116,-0.434 4.28676,-0.60458c-0.53349,1.33441 -0.6965,3.10777 -1.66578,3.92584c-3.82363,3.22714 -4.3893,7.35242 -3.53395,11.77233c0.75526,3.90284 3.77874,5.79083 7.4448,6.45968c1.53289,0.27967 3.19471,-0.22174 4.79918,-0.23741c1.35153,-0.0132 2.70493,0.16266 4.0575,0.25484c-0.52435,1.41409 -0.64806,3.29197 -1.64788,4.15567c-3.04855,2.63348 -4.30097,5.66707 -3.899,9.6694c0.59314,5.90598 6.52405,9.91203 12.29982,8.286c1.33658,-0.3763 2.89272,0.02728 4.34783,0.07199c-0.53842,1.37552 -0.72467,3.09683 -1.67662,4.06631c-3.98294,4.05632 -5.20548,8.59277 -3.11406,12.94522c1.92207,4.00003 6.25349,5.6239 11.87741,4.86176c1.31288,-0.17792 2.78229,0.79922 4.17969,1.24493c-1.20467,1.10614 -2.26255,2.92166 -3.63726,3.20612c-10.94337,2.26465 -19.98823,-6.41187 -17.93113,-17.4625c0.60426,-3.24607 -0.25992,-4.35028 -2.83336,-5.67111c-6.78098,-3.48031 -9.82735,-9.15803 -8.13726,-16.47522c0.79993,-3.46322 -0.60226,-4.33055 -3.01233,-5.5744c-5.27259,-2.72125 -8.40519,-6.93689 -8.31349,-13.54501z" fill="#D9C594"/>
  <path id="svg_17" d="m133.59027,224.54256c-4.49885,3.81596 -8.00143,7.66794 -5.60087,13.84877c1.89825,4.88751 7.27883,7.43153 12.16059,6.05789c1.35445,-0.38112 2.9124,-0.03902 4.37699,-0.02872c-0.68602,1.5246 -1.03839,3.35749 -2.11426,4.52193c-5.43955,5.88744 -5.91991,11.31297 -0.38519,15.3235c2.27237,1.64658 5.74524,1.7662 8.7256,2.25128c1.49638,0.24353 3.11279,-0.25036 4.84622,-0.42831c-0.93954,4.83288 -4.37618,6.14062 -11.13031,4.81424c-8.34209,-1.63828 -11.77696,-8.94583 -9.73477,-21.00571c-0.46916,-0.28986 -0.97841,-0.68916 -1.5515,-0.94585c-8.77344,-3.9295 -11.62993,-8.82295 -9.82226,-18.16009c0.55506,-2.86695 -0.14383,-3.99352 -2.6392,-4.72418c-5.24872,-1.5369 -7.88379,-5.38683 -8.67615,-10.517c-0.92932,-6.01695 0.46926,-11.33943 5.91774,-14.78507c1.13977,-0.72081 2.89651,-0.466 4.36894,-0.66078c-0.50735,1.33608 -0.64273,3.07953 -1.58469,3.93961c-4.76231,4.34823 -5.92794,8.2931 -3.49035,13.1651c2.38125,4.75937 6.86204,6.40962 13.11899,4.57168c2.46372,-0.72369 3.51981,-0.13992 3.21448,2.76171z" fill="#D9C494"/>
  <g transform="rotate(33.0211 211.595 247.907)" stroke="null">
   <path stroke="null" fill="#666666" d="m204.42205,283.50496c-5.28694,0 -10.4749,-2.07018 -14.37317,-5.96904l-2.68848,-2.68848l5.37637,-5.37637l2.68848,2.68848c3.63056,3.63056 9.0439,4.72944 13.78944,2.80118l3.52204,-1.4304l2.86199,7.04408l-3.52204,1.4304c-2.48397,1.00945 -5.08183,1.50016 -7.65464,1.50016z"/>
   <path stroke="null" fill="#808080" d="m123.08241,264.74341l0,0c-2.64317,-1.78398 -3.08618,-5.5308 -0.88781,-7.84067c6.73522,-7.07509 16.11958,-11.16475 26.07753,-11.16475l0,10.36757c-7.10609,0 -13.80196,2.92341 -18.59997,7.98019c-1.71779,1.8114 -4.52195,2.05348 -6.58974,0.65766z"/>
   <path stroke="null" fill="#666666" d="m278.00867,116.32282l-8.74876,-8.12687c-2.58951,-2.40527 -3.73967,-5.98634 -3.0355,-9.45054l0,0c0.55868,-2.74811 3.90841,-3.82792 5.96726,-1.92409l12.85631,11.88979l-7.03931,7.61171z"/>
   <polygon stroke="null" fill="#808080" points="302.40179443359375,113.466796875 206.29603576660156,209.572509765625 188.09019470214844,191.36666870117188 284.1958923339844,95.26749420166016 "/>
   <g stroke="null">
    <polyline stroke="null" fill="#666666" points="302.40179443359375,113.466796875 206.29603576660156,209.572509765625 200.34487915039062,203.62075805664062 296.45068359375,107.52277374267578 "/>
    <path stroke="null" fill="#666666" d="m216.47879,226.16433l-3.66931,-3.66931c-0.97248,-0.97248 -1.51805,-2.29079 -1.51805,-3.66514c0,-1.37495 0.54616,-2.69385 1.51805,-3.66514l63.78966,-63.79025l7.33147,7.33147l-67.45181,67.45837z"/>
   </g>
   <path stroke="null" fill="#B3B3B3" d="m196.80676,297.9622c0,0 -1.21694,0.50502 -2.97945,1.38926l-0.2695,-0.21465c-21.42977,5.52305 -45.05016,18.99648 -64.371,-4.54818l-0.49727,0.11746c-0.13833,-0.30409 -0.28381,-0.60817 -0.44898,-0.89855c3.46301,-2.07316 6.39357,-5.34954 6.39357,-5.34954c6.98147,-6.98147 10.47847,-16.13985 10.47847,-25.29823c0,-9.15182 -3.49759,-18.30304 -10.47847,-25.29108l53.6582,-53.6582c1.91992,-1.91992 5.03353,-1.91992 6.95345,0l0,0l18.20585,18.20585l9.71826,9.71826l13.27071,13.27071c1.91992,1.91992 1.91992,5.03353 0,6.95345l-9.1238,9.1238c-4.15406,4.15406 -4.50704,10.6651 -1.07146,15.227c-5.1498,-4.01633 -12.6351,-3.74623 -17.48738,0.96115l-12.19269,11.8403c-3.93941,3.82911 -5.93744,8.93061 -5.93744,14.03867c0,4.67936 1.66592,9.36587 5.03234,13.09779c0.39412,0.43586 0.80136,0.83594 1.23066,1.21694l-0.08407,0.09778z"/>
   <polygon stroke="null" fill="#808080" points="189.2522735595703,203.1503143310547 216.37503051757812,230.2724609375 184.6074981689453,262.03997802734375 157.4912872314453,234.9178009033203 "/>
   <g stroke="null">
    <path stroke="null" fill="#666666" d="m175.4402,237.77389c-1.14957,-0.01968 -2.29138,-0.47879 -3.15237,-1.37137c-1.72316,-1.78517 -1.67367,-4.62927 0.1109,-6.35303l21.03446,-20.313c1.78398,-1.72316 4.62808,-1.67427 6.35303,0.1109c1.72316,1.78517 1.67367,4.62927 -0.1109,6.35303l-21.03446,20.313c-0.89258,0.86218 -2.0499,1.28074 -3.20066,1.26047z"/>
    <path stroke="null" fill="#666666" d="m185.62472,248.32272c-1.14957,-0.01968 -2.29138,-0.47879 -3.15237,-1.37137c-1.72316,-1.78517 -1.67367,-4.62927 0.1109,-6.35303l21.03446,-20.313c1.78457,-1.72316 4.62927,-1.67427 6.35303,0.1109c1.72316,1.78517 1.67367,4.62927 -0.1109,6.35303l-21.03446,20.313c-0.89318,0.86158 -2.0505,1.28074 -3.20066,1.26047z"/>
    <path stroke="null" fill="#666666" d="m184.60752,266.43973l-31.51412,-31.52187l36.1589,-36.16665l31.52128,31.52187l-36.16605,36.16665zm-22.71767,-31.52187l22.71767,22.72363l27.36841,-27.36841l-22.72363,-22.72423l-27.36244,27.369z"/>
   </g>
   <path stroke="null" fill="#FCBB29" d="m212.57992,356.76901c3.37298,2.47443 3.76054,7.36784 0.80136,10.31927l-30.75808,30.75868c-3.66335,3.66335 -9.62107,3.58763 -13.2087,-0.1586c-30.10161,-31.45688 -42.04566,-52.29577 -41.8656,-75.48626c0.06261,-7.51989 4.63106,-19.72033 1.14003,-27.496l0.49727,-0.11746c19.28447,-14.54966 46.79419,-13.02922 64.371,4.54818l0.2695,0.21465c-3.878,1.93542 -10.38188,5.67509 -12.34473,9.78086c-7.53956,16.67051 18.42826,38.33998 31.09794,47.63669z"/>
   <path stroke="null" fill="#D39A29" d="m176.11575,389.69207c-27.98195,-29.37836 -38.3519,-47.71181 -38.19926,-67.41008c0.01312,-1.67427 0.49548,-4.451 0.96115,-7.1365c0.8103,-4.66803 1.74462,-10.05573 1.42146,-15.4172c5.6268,-3.05756 11.91185,-4.65312 18.45568,-4.65312c6.09903,0 11.98639,1.39999 17.29538,4.04793c-1.70289,1.77801 -3.00509,3.61983 -3.92153,5.53617l-0.09242,0.19915c-5.26607,11.64056 -3.94776,31.00135 31.11285,57.80034l-27.03332,27.03332z"/>
   <g stroke="null">
    <circle stroke="null" fill="#666666" r="4.2596" cy="364.67348" cx="177.07809"/>
    <circle stroke="null" fill="#666666" r="4.2596" cy="327.34951" cx="155.42055"/>
   </g>
   <path stroke="null" fill="#B3B3B3" d="m207.00142,304.84053c-4.33413,0 -8.6778,-1.53892 -12.17838,-4.65074c-0.5241,-0.46507 -1.00528,-0.94088 -1.46975,-1.45306c-3.76471,-4.17493 -5.83668,-9.56621 -5.83668,-15.18586c0,-6.17833 2.44343,-11.95657 6.88071,-16.26864l12.19388,-11.8409c5.86112,-5.68642 15.12563,-6.19741 21.55498,-1.19071c0.71848,0.55034 1.40953,1.18594 2.05288,1.88951c8.5675,9.35812 8.40651,23.86485 -0.36669,33.02561l-9.53044,9.9651c-3.62817,3.78976 -8.45838,5.70968 -13.30052,5.70968zm11.06757,-47.81854c-2.5913,0 -5.17603,0.97248 -7.14485,2.88167l-12.1915,11.83911c-3.22034,3.13031 -4.99418,7.32313 -4.99418,11.80691c0,4.07774 1.50255,7.98973 4.23158,11.0145c0.30528,0.33807 0.62904,0.65766 0.985,0.97308c4.89937,4.35738 12.3018,4.04435 16.85416,-0.70834l9.53044,-9.9663c6.51521,-6.8032 6.63386,-17.57502 0.27189,-24.5243c-0.40068,-0.43765 -0.82223,-0.827 -1.25331,-1.15672c-0.00775,-0.00596 -0.0161,-0.01252 -0.02445,-0.01848c-1.84062,-1.43398 -4.05509,-2.14113 -6.26478,-2.14113z"/>
  </g>
 </g>
</svg>